<?xml version="1.0" standalone="no"?>
<!DOCTYPE svg PUBLIC "-//W3C//DTD SVG 20010904//EN"
 "http://www.w3.org/TR/2001/REC-SVG-20010904/DTD/svg10.dtd">
<svg version="1.0" xmlns="http://www.w3.org/2000/svg"
 width="503.000000pt" height="503.000000pt" viewBox="0 0 503.000000 503.000000"
 preserveAspectRatio="xMidYMid meet">
<metadata>
Created by potrace 1.14, written by Peter Selinger 2001-2017
</metadata>
<g transform="translate(0.000000,503.000000) scale(0.100000,-0.100000)"
fill="#000000" stroke="none">
<path d="M2336 4813 c-1 -2 -28 -5 -60 -7 -31 -3 -76 -8 -100 -11 -23 -4 -56
-8 -72 -10 -71 -8 -289 -66 -412 -111 -99 -36 -365 -162 -370 -176 -2 -4 -8
-8 -13 -8 -10 0 -180 -112 -225 -149 -107 -87 -140 -117 -244 -221 -64 -63
-131 -135 -150 -160 -19 -25 -37 -47 -41 -50 -18 -14 -173 -258 -218 -344 -90
-171 -192 -456 -216 -606 -3 -19 -8 -42 -10 -50 -2 -8 -7 -39 -10 -69 -4 -30
-9 -63 -12 -75 -9 -41 -12 -432 -3 -506 21 -173 48 -314 85 -435 112 -367 311
-701 581 -970 67 -67 169 -159 209 -187 5 -4 24 -18 40 -31 114 -89 313 -204
490 -283 140 -62 409 -140 550 -158 17 -3 62 -9 100 -16 67 -11 438 -16 480
-6 12 2 48 7 80 11 33 4 67 9 75 10 257 50 439 109 645 210 129 63 306 167
341 200 6 5 23 19 39 30 96 68 272 232 370 345 136 157 278 384 365 585 40 92
109 284 115 320 2 11 8 43 15 70 6 28 16 74 21 104 5 30 12 57 14 61 26 42 27
614 1 730 -3 14 -7 39 -10 55 -20 149 -118 453 -191 595 -97 190 -175 312
-291 455 -41 50 -79 95 -86 102 -7 6 -38 38 -70 70 -59 62 -165 157 -201 182
-12 8 -24 18 -27 21 -9 12 -151 111 -169 118 -9 3 -24 14 -35 23 -36 34 -312
166 -431 207 -185 63 -288 89 -459 117 -83 13 -480 27 -490 18z m1088 -402 c3
-5 16 -11 28 -14 28 -7 150 -77 243 -139 148 -99 334 -269 438 -400 42 -52 53
-108 17 -86 -11 7 -23 20 -25 29 -10 30 -261 277 -340 334 -15 11 -32 25 -39
30 -39 34 -258 170 -331 205 -50 24 -58 32 -43 41 17 11 45 11 52 0z m-1900
-68 c-18 -13 -36 -23 -39 -23 -3 0 -33 -18 -66 -40 -33 -22 -64 -40 -68 -40
-5 0 -20 -11 -35 -25 -15 -13 -36 -30 -48 -36 -39 -21 -163 -126 -257 -218
-88 -87 -110 -100 -118 -74 -4 10 184 204 228 238 8 6 43 33 79 61 72 55 171
122 210 142 14 7 50 26 80 42 49 26 56 27 61 12 4 -12 -4 -24 -27 -39z m937
-2557 c1 -10 3 -34 8 -126 1 -25 2 -25 93 -25 l93 0 1 -45 c1 -60 -2 -63 -37
-37 -26 18 -45 22 -117 23 -48 1 -92 2 -98 3 -17 2 -34 70 -24 94 10 25 22 74
25 100 2 9 3 21 4 26 2 12 51 1 52 -13z m-1125 -83 c9 -32 22 -80 30 -107 18
-63 18 -100 0 -115 -12 -10 -17 -9 -24 6 -9 18 -50 166 -59 212 -2 13 -6 28
-9 32 -4 7 23 28 38 29 4 0 15 -26 24 -57z m1691 -93 c7 -13 10 -26 8 -28 -2
-2 -34 -5 -72 -7 -37 -1 -71 -3 -74 -4 -6 -1 -19 -62 -24 -116 -1 -16 2 -35 7
-42 8 -10 13 -177 9 -284 -1 -32 -50 -61 -52 -31 -3 51 -4 519 -1 528 2 8 34
11 95 10 86 -2 92 -3 104 -26z m-1878 -87 c47 -159 121 -431 121 -447 0 -4
-15 9 -34 27 -22 23 -39 54 -51 93 -9 32 -33 111 -53 174 -20 63 -35 118 -35
121 1 3 -2 22 -7 42 -6 30 -5 39 9 47 26 15 29 13 50 -57z m1975 -316 c-2 -98
-8 -123 -23 -98 -5 8 -14 10 -21 6 -9 -6 -11 11 -7 71 3 44 7 88 10 99 3 11 6
21 6 23 1 2 9 2 19 0 15 -3 17 -15 16 -101z m-359 -805 c8 -22 0 -26 -56 -28
-50 -3 -51 -2 -34 16 15 17 36 25 72 26 7 0 15 -6 18 -14z"/>
</g>
</svg>
